<?xml version="1.0" standalone="no"?>
<svg viewBox="0 0 200 200" xmlns="http://www.w3.org/2000/svg">
  <path fill="#000000" d="M37.1,-56.9C46,-52,49.7,-38.2,52.1,-25.9C54.6,-13.5,55.7,-2.7,55.6,9C55.5,20.7,54.2,33.2,47.2,40.4C40.2,47.6,27.6,49.4,15.3,53.8C2.9,58.3,-9.2,65.3,-23.4,67C-37.7,68.7,-54.2,64.9,-66.1,55.1C-78,45.2,-85.3,29.3,-88.6,12.2C-91.9,-4.9,-91.1,-23.1,-80.5,-32.8C-69.8,-42.4,-49.3,-43.6,-34.3,-45.7C-19.2,-47.7,-9.6,-50.7,2.2,-54.2C14.1,-57.7,28.2,-61.7,37.1,-56.9Z" transform="translate(100 100)" />
</svg>
